<?xml version="1.0"?>
<svg width="24" height="24" xmlns="http://www.w3.org/2000/svg" xmlns:svg="http://www.w3.org/2000/svg">
  <path
    d="M 20.3 4.4 a 19.8 19.8 0 0 0 -4.9 -1.5 a 0.1 0.1 0 0 0 -0.1 0 c -0.2 0.4 -0.4 0.9 -0.6 1.3 a 18.3 18.3 0 0 0 -5.5 0 a 12.6 12.6 0 0 0 -0.6 -1.3 a 0.1 0.1 0 0 0 -0.1 0 a 19.7 19.7 0 0 0 -4.9 1.5 a 0.1 0.1 0 0 0 0 0 c -3.1 4.7 -4 9.2 -3.5 13.7 a 0.1 0.1 0 0 0 0 0.1 a 19.9 19.9 0 0 0 6 3 a 0.1 0.1 0 0 0 0.1 0 a 14.1 14.1 0 0 0 1.2 -2 a 0.1 0.1 0 0 0 0 -0.1 a 13.1 13.1 0 0 1 -1.9 -0.9 a 0.1 0.1 0 0 1 0 -0.1 a 10.2 10.2 0 0 0 0.4 -0.3 a 0.1 0.1 0 0 1 0.1 0 c 3.9 1.8 8.2 1.8 12.1 0 a 0.1 0.1 0 0 1 0.1 0 c 0.1 0.1 0.3 0.2 0.4 0.3 a 0.1 0.1 0 0 1 0 0.1 a 12.3 12.3 0 0 1 -1.9 0.9 a 0.1 0.1 0 0 0 0 0.1 c 0.4 0.7 0.8 1.4 1.2 2 a 0.1 0.1 0 0 0 0.1 0 a 19.8 19.8 0 0 0 6 -3 a 0.1 0.1 0 0 0 0 -0.1 c 0.5 -5.2 -0.8 -9.7 -3.5 -13.7 a 0.1 0.1 0 0 0 0 0 z m -12.3 11 c -1.2 0 -2.2 -1.1 -2.2 -2.4 c 0 -1.3 1 -2.4 2.2 -2.4 c 1.2 0 2.2 1.1 2.2 2.4 c 0 1.3 -1 2.4 -2.2 2.4 z m 8 0 c -1.2 0 -2.1 -1.1 -2.1 -2.4 c 0 -1.3 0.9 -2.4 2.1 -2.4 c 1.2 0 2.2 1.1 2.2 2.4 c 0 1.3 -0.9 2.4 -2.1 2.4 l 0 0 z"
    fill="#000000" />
</svg>