<svg width="24" height="24" xmlns="http://www.w3.org/2000/svg">
  <path
    d="M20.3 4.4a19.8 19.8 0 00-4.9-1.5.1.1 0 00-.1 0c-.2.4-.4.9-.6 1.3a18.3 18.3 0 00-5.5 0 12.6 12.6 0 00-.6-1.3.1.1 0 00-.1 0 19.7 19.7 0 00-4.9 1.5C.5 9.1-.4 13.6.1 18.1a.1.1 0 000 .1 19.9 19.9 0 006 3 .1.1 0 00.1 0 14.1 14.1 0 001.2-2 .1.1 0 000-.1 13.1 13.1 0 01-1.9-.9.1.1 0 010-.1 10.2 10.2 0 00.4-.3.1.1 0 01.1 0c3.9 1.8 8.2 1.8 12.1 0a.1.1 0 01.1 0c.1.1.3.2.4.3a.1.1 0 010 .1 12.3 12.3 0 01-1.9.9.1.1 0 000 .1c.4.7.8 1.4 1.2 2a.1.1 0 00.1 0 19.8 19.8 0 006-3 .1.1 0 000-.1c.5-5.2-.8-9.7-3.5-13.7zM8 15.4c-1.2 0-2.2-1.1-2.2-2.4 0-1.3 1-2.4 2.2-2.4 1.2 0 2.2 1.1 2.2 2.4 0 1.3-1 2.4-2.2 2.4zm8 0c-1.2 0-2.1-1.1-2.1-2.4 0-1.3.9-2.4 2.1-2.4 1.2 0 2.2 1.1 2.2 2.4 0 1.3-.9 2.4-2.1 2.4z"
    fill="#261F29" />
</svg>