<svg width="50" height="50" viewBox="0 0 50 50" fill="none" xmlns="http://www.w3.org/2000/svg">
    <path
        d="M 22.3 0.7 C 11 2 1.9 11.3 0.7 22.7 C -0.5 34.6 6.1 45.2 16.2 49.3 C 16.9 49.5 17.6 49 17.6 48 V 44 C 17.6 44 16.7 44.2 15.4 44.2 C 12 44.2 10.5 41.2 10.3 39.4 C 10 38.4 9.5 37.6 8.8 36.9 C 8.1 36.6 7.8 36.6 7.8 36.4 C 7.8 35.9 8.6 35.9 8.8 35.9 C 10.3 35.9 11.5 37.6 12 38.4 C 13.2 40.4 14.7 40.9 15.4 40.9 C 16.4 40.9 17.1 40.7 17.6 40.4 C 17.9 38.6 18.6 36.9 20.1 35.9 C 14.4 34.6 10.3 31.3 10.3 25.8 C 10.3 23 11.5 20.2 13.2 18.2 C 13 17.7 12.7 16.4 12.7 14.6 C 12.7 13.6 12.7 12.1 13.5 10.6 C 13.5 10.6 16.9 10.6 20.3 13.9 C 21.6 13.4 23.3 13.1 25 13.1 C 26.7 13.1 28.4 13.4 29.9 13.9 C 33.1 10.6 36.8 10.6 36.8 10.6 C 37.3 12.1 37.3 13.6 37.3 14.6 C 37.3 16.7 37 17.7 36.8 18.2 C 38.5 20.2 39.7 22.7 39.7 25.8 C 39.7 31.3 35.6 34.6 29.9 35.9 C 31.4 37.1 32.4 39.4 32.4 41.7 V 48.2 C 32.4 49 33.1 49.8 34.1 49.5 C 43.2 45.7 49.6 36.6 49.6 26 C 49.6 10.8 37 -1 22.3 0.7 Z"
        fill="#000000" />
</svg>