<svg width="50" height="50" fill="none" xmlns="http://www.w3.org/2000/svg">
    <path
        d="M22.3.7C11 2 1.9 11.3.7 22.7-.5 34.6 6.1 45.2 16.2 49.3c.7.2 1.4-.3 1.4-1.3v-4s-.9.2-2.2.2c-3.4 0-4.9-3-5.1-4.8-.3-1-.8-1.8-1.5-2.5-.7-.3-1-.3-1-.5 0-.5.8-.5 1-.5 1.5 0 2.7 1.7 3.2 2.5 1.2 2 2.7 2.5 3.4 2.5 1 0 1.7-.2 2.2-.5.3-1.8 1-3.5 2.5-4.5-5.7-1.3-9.8-4.6-9.8-10.1 0-2.8 1.2-5.6 2.9-7.6-.2-.5-.5-1.8-.5-3.6 0-1 0-2.5.8-4 0 0 3.4 0 6.8 3.3 1.3-.5 3-.8 4.7-.8 1.7 0 3.4.3 4.9.8 3.2-3.3 6.9-3.3 6.9-3.3.5 1.5.5 3 .5 4 0 2.1-.3 3.1-.5 3.6 1.7 2 2.9 4.5 2.9 7.6 0 5.5-4.1 8.8-9.8 10.1 1.5 1.2 2.5 3.5 2.5 5.8v6.5c0 .8.7 1.6 1.7 1.3 9.1-3.8 15.5-12.9 15.5-23.5C49.6 10.8 37-1 22.3.7z"
        fill="#0f1515" />
</svg>